
<svg xmlns="http://www.w3.org/2000/svg" viewBox="0 0 512 512"><path fill="#fff" d="M0 0h512v512H0z"/><path fill="#ee1c25" d="M0 0h512v341.3H0z"/><path fill="#0b4ea2" d="M0 0h512v170.7H0z"/><path fill="#fff" d="M185.8 256.1c0 35.7-29 64.6-64.8 64.6s-64.9-29-64.9-64.6c0-35.7 29-64.7 64.9-64.7 35.7 0 64.8 29 64.8 64.7z"/><path fill="#ee1c25" d="M121 191.5c-35.8 0-64.9 29-64.9 64.7 0 35.7 29 64.6 64.9 64.6s64.8-29 64.8-64.6c0-35.7-29-64.7-64.8-64.7zm-48.8 64.7c0-26.8 21.8-48.6 48.8-48.6s48.7 21.8 48.7 48.6c0 26.8-21.8 48.6-48.7 48.6-27 0-48.8-21.8-48.8-48.6z"/><path fill="#fff" d="M121 207.5c13.3 0 25.3 5.4 34 14.1 8.6 8.6 14 20.6 14 34s-5.4 25.3-14 34c-8.7 8.7-20.7 14-34 14s-25.4-5.3-34-14c-8.7-8.7-14-20.7-14-34s5.3-25.4 14-34c8.6-8.7 20.7-14.1 34-14.1z"/><path fill="#ee1c25" d="M121 303.4a48.9 48.9 0 1 1 0-97.8 48.9 48.9 0 0 1 0 97.8zm-41.5-75.3v55.4h26.7v-24h29.6v24h26.7v-55.4h-26.7v24.1h-29.6v-24.1z"/></svg>
